<svg fill="#000000" xmlns="http://www.w3.org/2000/svg"  viewBox="0 0 100 100" width="400px" height="400px"><path fill="none" stroke="#000000" stroke-linejoin="round" stroke-miterlimit="10" stroke-width="2" d="M89,26	c0,0-4.774,1.394-9.157,1.491c-0.075-0.191-0.136-0.388-0.218-0.576C85.019,23.428,86.5,19,86.5,19s-5.276,2.871-10.191,2.989	C73.312,18.915,69.132,17,64.5,17C55.387,17,48,24.387,48,33.5c0,1.514,0.221,2.973,0.603,4.365	C25.768,36.375,14.75,22.141,13.193,20C11.798,22.421,11,25.505,11,28.5c0,6.163,3.662,11.981,9,14.5c-6,0-9-2-9-2	c0,8.502,6.627,15.486,15,16c-1.882,0.668-3.889,1-6,1c-0.907,0-2.213-0.074-3.084-0.203L17,58c2.669,6.311,9.747,10.797,17,11	c-5.571,4.98-13.44,8-21.5,8H11c6,4,14.111,6,22.5,6C59.734,83,81,61.734,81,35.5c0,0-0.026-2.441-0.035-2.662C86,30,89,26,89,26z"/><path fill="none" stroke="#000000" stroke-linecap="round" stroke-miterlimit="10" d="M52.5,33.5c0,0.329,0.041,0.666,0.07,1"/><path fill="none" stroke="#000000" stroke-linecap="round" stroke-miterlimit="10" d="M53.605,28.5	c-0.434,0.942-0.747,1.947-0.925,3"/><path fill="none" stroke="#000000" stroke-linecap="round" stroke-miterlimit="10" d="M72.5,24.584	c-2.207-1.987-5.014-3.084-8-3.084c-3.542,0-6.721,1.552-8.919,4"/><path fill="none" stroke="#000000" stroke-linecap="round" stroke-miterlimit="10" d="M32.5,78.471	c0.335,0.007,0.663,0.029,1,0.029"/><path fill="none" stroke="#000000" stroke-linecap="round" stroke-miterlimit="10" d="M47.5,76.147	C58.598,72.314,67.646,64.063,72.537,53.5"/><path fill="none" stroke="#000000" stroke-linecap="round" stroke-miterlimit="10" d="M36.5,78.384	c1.695-0.118,3.364-0.332,5-0.642"/></svg>